<?xml version="1.0" encoding="UTF-8" standalone="no"?>
<!-- Created with Inkscape (http://www.inkscape.org/) -->

<svg
   xmlns:dc="http://purl.org/dc/elements/1.1/"
   xmlns:cc="http://creativecommons.org/ns#"
   xmlns:rdf="http://www.w3.org/1999/02/22-rdf-syntax-ns#"
   xmlns:svg="http://www.w3.org/2000/svg"
   xmlns="http://www.w3.org/2000/svg"
   xmlns:sodipodi="http://sodipodi.sourceforge.net/DTD/sodipodi-0.dtd"
   xmlns:inkscape="http://www.inkscape.org/namespaces/inkscape"
   sodipodi:docname="gear.svg"
   inkscape:version="0.47 r22583"
   version="1.1"
   id="svg2"
   height="1052.3622047"
   width="744.09448819"
   inkscape:export-filename="/home/palmerc/gear-60.png"
   inkscape:export-xdpi="68.089996"
   inkscape:export-ydpi="68.089996">
  <sodipodi:namedview
     id="base"
     pagecolor="#ffffff"
     bordercolor="#666666"
     borderopacity="1.0"
     inkscape:pageopacity="0.0"
     inkscape:pageshadow="2"
     inkscape:zoom="1"
     inkscape:cx="196"
     inkscape:cy="520"
     inkscape:document-units="px"
     inkscape:current-layer="svg2"
     showgrid="false"
     inkscape:window-width="1360"
     inkscape:window-height="693"
     inkscape:window-x="0"
     inkscape:window-y="24"
     inkscape:window-maximized="1"
     inkscape:snap-object-midpoints="true" />
  <defs
     id="defs4">
    <inkscape:perspective
       sodipodi:type="inkscape:persp3d"
       inkscape:vp_x="0 : 526.18109 : 1"
       inkscape:vp_y="0 : 1000 : 0"
       inkscape:vp_z="744.09448 : 526.18109 : 1"
       inkscape:persp3d-origin="372.04724 : 350.78739 : 1"
       id="perspective10" />
  </defs>
  <metadata
     id="metadata7">
    <rdf:RDF>
      <cc:Work
         rdf:about="">
        <dc:format>image/svg+xml</dc:format>
        <dc:type
           rdf:resource="http://purl.org/dc/dcmitype/StillImage" />
        <dc:title />
      </cc:Work>
    </rdf:RDF>
  </metadata>
  <g
     inkscape:label="Layer 1"
     inkscape:groupmode="layer"
     id="layer1" />
  <g
     id="g3077"
     transform="translate(375.0,532.3622047)"
     inkscape:label="Gear10"
     style="stroke-width:4;stroke-miterlimit:4;stroke-dasharray:none">
    <path
       id="path3079"
       d="M25.089,-4.358L29.470,-5.119L31.439,-4.979L38.151,-1.870L38.151,1.870L31.439,4.979L29.470,5.119L25.089,4.358L22.859,11.221L26.851,13.181L28.362,14.451L31.964,20.912L29.766,23.938L22.508,22.508L20.833,21.463L17.736,18.273L11.898,22.514L13.975,26.446L14.451,28.362L13.568,35.706L10.011,36.862L4.979,31.439L4.238,29.610L3.608,25.208L-3.608,25.208L-4.238,29.610L-4.979,31.439L-10.011,36.862L-13.568,35.706L-14.451,28.362L-13.975,26.446L-11.898,22.514L-17.736,18.273L-20.833,21.463L-22.508,22.508L-29.766,23.938L-31.964,20.912L-28.362,14.451L-26.851,13.181L-22.859,11.221L-25.089,4.358L-29.470,5.119L-31.439,4.979L-38.151,1.870L-38.151,-1.870L-31.439,-4.979L-29.470,-5.119L-25.089,-4.358L-22.859,-11.221L-26.851,-13.181L-28.362,-14.451L-31.964,-20.912L-29.766,-23.938L-22.508,-22.508L-20.833,-21.463L-17.736,-18.273L-11.898,-22.514L-13.975,-26.446L-14.451,-28.362L-13.568,-35.706L-10.011,-36.862L-4.979,-31.439L-4.238,-29.610L-3.608,-25.208L3.608,-25.208L4.238,-29.610L4.979,-31.439L10.011,-36.862L13.568,-35.706L14.451,-28.362L13.975,-26.446L11.898,-22.514L17.736,-18.273L20.833,-21.463L22.508,-22.508L29.766,-23.938L31.964,-20.912L28.362,-14.451L26.851,-13.181L22.859,-11.221z"
       style="stroke:#000000;fill:none;stroke-width:4;stroke-miterlimit:4;stroke-dasharray:none" />
  </g>
  <path
     sodipodi:type="arc"
     style="fill:none;fill-rule:evenodd;stroke:#000000;stroke-width:8.68487715000000016;stroke-linecap:butt;stroke-linejoin:miter;stroke-miterlimit:4;stroke-opacity:1;stroke-dasharray:none"
     id="path3087"
     sodipodi:cx="127.5"
     sodipodi:cy="513.86218"
     sodipodi:rx="36.5"
     sodipodi:ry="35.5"
     d="m 164,513.86218 a 36.5,35.5 0 1 1 -73,0 36.5,35.5 0 1 1 73,0 z"
     transform="matrix(0.4542177,0,0,0.46701257,317.08724,292.38211)" />
</svg>
